<?xml version="1.0" encoding="UTF-8" standalone="no"?>
<!-- Created with Inkscape (http://www.inkscape.org/) -->

<svg
   version="1.1"
   id="svg1"
   width="515.26367"
   height="454.27734"
   viewBox="0 0 515.26367 454.27734"
   sodipodi:docname="icon-dark.svg"
   xml:space="preserve"
   inkscape:version="1.4.2 (ebf0e94, 2025-05-08)"
   xmlns:inkscape="http://www.inkscape.org/namespaces/inkscape"
   xmlns:sodipodi="http://sodipodi.sourceforge.net/DTD/sodipodi-0.dtd"
   xmlns="http://www.w3.org/2000/svg"
   xmlns:svg="http://www.w3.org/2000/svg"><defs
     id="defs1"><rect
       x="231.65642"
       y="801.40601"
       width="882.79877"
       height="231.65642"
       id="rect2" /></defs><sodipodi:namedview
     id="namedview1"
     pagecolor="#ffffff"
     bordercolor="#000000"
     borderopacity="0.25"
     inkscape:showpageshadow="2"
     inkscape:pageopacity="0.0"
     inkscape:pagecheckerboard="0"
     inkscape:deskcolor="#d1d1d1"
     inkscape:zoom="0.35355339"
     inkscape:cx="691.55043"
     inkscape:cy="-106.06602"
     inkscape:window-width="1974"
     inkscape:window-height="1083"
     inkscape:window-x="74"
     inkscape:window-y="32"
     inkscape:window-maximized="1"
     inkscape:current-layer="g1"
     showguides="true"><inkscape:page
       x="3.2686256e-07"
       y="6.0146073e-07"
       width="515.26367"
       height="454.27734"
       id="page2"
       margin="0"
       bleed="0" /></sodipodi:namedview><g
     inkscape:groupmode="layer"
     inkscape:label="Image"
     id="g1"
     style="display:inline"
     transform="translate(-153.61624,-440.75058)"><g
       id="g23"
       inkscape:label="brace-rectagulars"
       style="display:none"
       transform="matrix(0.79853149,0,0,0.79853149,-93.761539,276.69727)"><rect
         style="display:inline;fill:#1f2d44;fill-opacity:1;stroke:none;stroke-width:8;stroke-linecap:butt;stroke-linejoin:round;stroke-dasharray:none;stroke-opacity:1"
         id="rect7"
         width="645.26215"
         height="568.89319"
         x="309.79199"
         y="205.44264"
         ry="21.913445" /><rect
         style="display:inline;fill:#ffffff;fill-opacity:1;stroke:none;stroke-width:8;stroke-linecap:butt;stroke-linejoin:round;stroke-dasharray:none;stroke-opacity:1"
         id="rect10"
         width="594.34949"
         height="521.30096"
         x="335.24829"
         y="229.23875"
         ry="9.4077673" /><rect
         style="fill:#ffffff;fill-opacity:1;stroke:none;stroke-width:7.05104;stroke-linecap:butt;stroke-linejoin:round;stroke-dasharray:none;stroke-opacity:1"
         id="rect22"
         width="463"
         height="580"
         x="400.92303"
         y="199.88924" /></g><g
       id="g8"
       inkscape:label="ref circles2"
       style="display:none"><circle
         style="display:inline;opacity:0.434;fill:#000000;fill-opacity:1;stroke:none;stroke-width:1;stroke-linejoin:round;stroke-dasharray:none;stroke-opacity:1"
         id="circle7"
         cx="746.01654"
         cy="723.6153"
         r="109" /><circle
         style="display:inline;opacity:0.473;fill:#1f2d44;fill-opacity:1;stroke:none;stroke-width:1;stroke-linejoin:round;stroke-dasharray:none;stroke-opacity:1"
         id="circle8"
         cx="746.01654"
         cy="723.6153"
         r="95" /></g><g
       id="g34-6"
       inkscape:label="ref circles"
       style="display:none"><circle
         style="opacity:0.566;fill:#000000;fill-opacity:1;stroke:none;stroke-width:25.0974;stroke-linecap:round;stroke-linejoin:round;stroke-dasharray:none;stroke-opacity:1"
         id="circle32-1"
         cx="413.25241"
         cy="662.28149"
         r="250" /><circle
         style="opacity:0.566;fill:#000000;fill-opacity:1;stroke:none;stroke-width:10;stroke-linecap:round;stroke-linejoin:round;stroke-dasharray:none;stroke-opacity:1"
         id="circle33-5"
         cx="632.4231"
         cy="560.59222"
         r="57" /><circle
         style="opacity:0.566;fill:#000000;fill-opacity:1;stroke:none;stroke-width:25.0974;stroke-linecap:round;stroke-linejoin:round;stroke-dasharray:none;stroke-opacity:1"
         id="circle34-4"
         cx="-851.59381"
         cy="662.28149"
         r="250"
         transform="scale(-1,1)" /></g><g
       id="g5"
       inkscape:label="brace"
       style="display:inline"
       transform="matrix(0.79853149,0,0,0.79853149,-93.761544,276.69727)"><path
         d="m 400.92253,774.33471 v -23.79612 h -56.26539 c -5.2119,0 -9.40936,-4.19501 -9.40936,-9.40692 V 238.64679 c 0,-5.2119 4.19746,-9.40691 9.40936,-9.40691 h 56.26539 v -23.79612 h -69.21641 c -12.14005,0 -21.91523,9.77273 -21.91523,21.91278 v 525.06539 c 0,12.14005 9.77518,21.91278 21.91523,21.91278 z"
         style="display:inline;fill:#e6edf3;fill-opacity:1;stroke-width:8;stroke-linejoin:round"
         id="path32" /><path
         d="m 863.92331,205.44376 v 23.79612 h 56.26784 c 5.21191,0 9.40692,4.19501 9.40692,9.40691 v 502.48488 c 0,5.21191 -4.19501,9.40692 -9.40692,9.40692 h -56.26784 v 23.79612 h 69.21642 c 12.14004,0 21.91522,-9.77273 21.91522,-21.91278 V 227.35654 c 0,-12.14005 -9.77518,-21.91278 -21.91522,-21.91278 z"
         style="display:inline;fill:#e6edf3;fill-opacity:1;stroke-width:8;stroke-linejoin:round"
         id="path29" /></g><g
       id="g22"
       inkscape:label="matrix"
       style="display:inline"
       transform="matrix(0.79853149,0,0,0.79853149,-93.761564,276.69727)"><rect
         x="400.75125"
         y="258.21738"
         width="102.94578"
         height="102.94578"
         fill="#e6e6e6"
         id="rect1"
         style="fill:#2d333b;fill-opacity:1" /><rect
         x="400.75125"
         y="618.6153"
         width="102.94578"
         height="102.94578"
         fill="#e6e6e6"
         id="rect6"
         style="display:inline;fill:#2d333b;fill-opacity:1" /><rect
         x="400.75125"
         y="378.35001"
         width="102.94578"
         height="102.94578"
         fill="#e6e6e6"
         id="rect8"
         style="fill:#2d333b;fill-opacity:1" /><rect
         x="400.75125"
         y="498.48267"
         width="102.94578"
         height="102.94578"
         fill="#e6e6e6"
         id="rect9"
         style="fill:#2d333b;fill-opacity:1" /><rect
         x="-361.16315"
         y="761.14917"
         width="102.94578"
         height="102.94578"
         fill="#e6e6e6"
         id="rect11"
         transform="rotate(-90)"
         style="fill:#2d333b;fill-opacity:1" /><rect
         x="-361.16315"
         y="520.88385"
         width="102.94578"
         height="102.94578"
         fill="#e6e6e6"
         id="rect12"
         transform="rotate(-90)"
         style="fill:#2d333b;fill-opacity:1" /><rect
         x="-361.16315"
         y="641.01654"
         width="102.94578"
         height="102.94578"
         fill="#e6e6e6"
         id="rect13"
         transform="rotate(-90)"
         style="fill:#2d333b;fill-opacity:1" /><rect
         x="-481.29578"
         y="761.14917"
         width="102.94578"
         height="102.94578"
         fill="#e6e6e6"
         id="rect14"
         transform="rotate(-90)"
         style="fill:#2d333b;fill-opacity:1" /><rect
         x="-481.29578"
         y="520.88385"
         width="102.94578"
         height="102.94578"
         fill="#e6e6e6"
         id="rect15"
         transform="rotate(-90)"
         style="display:none;fill:#f0571e;fill-opacity:1" /><rect
         x="-481.29578"
         y="641.01654"
         width="102.94578"
         height="102.94578"
         fill="#e6e6e6"
         id="rect16"
         transform="rotate(-90)"
         style="display:none;fill:#f0571e;fill-opacity:1" /><rect
         x="-601.42847"
         y="761.14917"
         width="102.94578"
         height="102.94578"
         fill="#e6e6e6"
         id="rect17"
         transform="rotate(-90)"
         style="fill:#2d333b;fill-opacity:1" /><rect
         x="-601.42847"
         y="520.88385"
         width="102.94578"
         height="102.94578"
         fill="#e6e6e6"
         id="rect18"
         transform="rotate(-90)"
         style="display:none" /><rect
         x="-601.42847"
         y="641.01654"
         width="102.94578"
         height="102.94578"
         fill="#e6e6e6"
         id="rect19"
         transform="rotate(-90)"
         style="display:none" /><rect
         x="-721.5611"
         y="761.14917"
         width="102.94578"
         height="102.94578"
         fill="#e6e6e6"
         id="rect20"
         transform="rotate(-90)"
         style="display:inline;fill:#2d333b;fill-opacity:1" /><rect
         x="-721.5611"
         y="520.88385"
         width="102.94578"
         height="102.94578"
         fill="#e6e6e6"
         id="rect21"
         transform="rotate(-90)"
         style="fill:#fe721b;fill-opacity:1" /></g><g
       id="g3"
       inkscape:label="fox other"
       transform="matrix(0.79853149,0,0,0.79853149,-93.761564,276.69727)"
       style="display:inline"><path
         d="m 520.88477,378.34961 v 58.28711 a 250,250 0 0 1 64.83203,44.6582 h 38.11328 V 378.34961 Z"
         style="display:inline;fill:#fe721b;fill-opacity:1"
         id="path34" /><path
         d="m 641.01562,378.34961 v 102.94531 h 38.11329 a 250,250 0 0 1 64.83398,-44.6582 v -58.28711 z"
         style="display:inline;fill:#fe721b;fill-opacity:1"
         id="path35" /><polygon
         points="224,90 224,186 320,186 "
         fill="#f0571e"
         id="polygon2"
         transform="matrix(1.0723542,0,0,1.0723542,280.67651,161.70527)"
         inkscape:label="L ear"
         style="fill:#fe721b;fill-opacity:1" /><polygon
         points="224,186 320,186 224,90 "
         fill="#f0571e"
         id="polygon22"
         transform="matrix(-1.0723542,0,0,1.0723542,984.16988,161.70527)"
         inkscape:label="R ear"
         style="fill:#fe721b;fill-opacity:1" /><path
         style="fill:#fe721b;fill-opacity:1;stroke-width:1.16389;stroke-linecap:round;stroke-linejoin:round"
         id="path22"
         sodipodi:type="arc"
         sodipodi:cx="-601.42865"
         sodipodi:cy="520.88385"
         sodipodi:rx="102.946"
         sodipodi:ry="102.946"
         sodipodi:start="0"
         sodipodi:end="1.5707963"
         sodipodi:arc-type="slice"
         d="m -498.48265,520.88385 a 102.946,102.946 0 0 1 -102.946,102.946 v -102.946 z"
         transform="rotate(-90)" /><path
         style="fill:#fe721b;fill-opacity:1;stroke-width:1.16389;stroke-linecap:round;stroke-linejoin:round"
         id="path23"
         sodipodi:type="arc"
         sodipodi:cx="-743.96234"
         sodipodi:cy="-601.42865"
         sodipodi:rx="102.946"
         sodipodi:ry="102.946"
         sodipodi:start="0"
         sodipodi:end="1.5707963"
         sodipodi:arc-type="slice"
         d="m -641.01634,-601.42865 a 102.946,102.946 0 0 1 -102.946,102.946 v -102.946 z"
         transform="scale(-1)" /><path
         style="fill:#fe721b;fill-opacity:1;stroke-width:1.16389;stroke-linecap:round;stroke-linejoin:round"
         id="path24"
         sodipodi:type="arc"
         sodipodi:cx="-503.69727"
         sodipodi:cy="-601.42847"
         sodipodi:rx="102.946"
         sodipodi:ry="102.946"
         sodipodi:start="0"
         sodipodi:end="1.5707963"
         sodipodi:arc-type="slice"
         d="m -400.75127,-601.42847 a 102.946,102.946 0 0 1 -102.946,102.946 v -102.946 z"
         transform="scale(-1)" /><path
         style="fill:#fe721b;fill-opacity:1;stroke-width:1.16389;stroke-linecap:round;stroke-linejoin:round"
         id="path25"
         sodipodi:type="arc"
         sodipodi:cx="618.6153"
         sodipodi:cy="-503.69702"
         sodipodi:rx="102.946"
         sodipodi:ry="102.946"
         sodipodi:start="0"
         sodipodi:end="1.5707963"
         sodipodi:arc-type="slice"
         d="m 721.56129,-503.69702 a 102.946,102.946 0 0 1 -102.94599,102.946 v -102.946 z"
         transform="rotate(90)" /><path
         style="display:none;fill:#ffffff;fill-opacity:1;stroke:none;stroke-width:1.16389;stroke-linecap:round;stroke-linejoin:round;stroke-opacity:1"
         id="path27"
         sodipodi:type="arc"
         sodipodi:cx="-721.56134"
         sodipodi:cy="761.14917"
         sodipodi:rx="102.946"
         sodipodi:ry="102.946"
         sodipodi:start="0"
         sodipodi:end="1.3089969"
         sodipodi:arc-type="slice"
         d="m -618.61534,761.14917 a 102.946,102.946 0 0 1 -76.30161,99.4382 l -26.64439,-99.4382 z"
         transform="rotate(-90)"
         inkscape:label="tail2-legacy" /><path
         style="display:none;fill:none;fill-opacity:1;stroke:#ffffff;stroke-width:15;stroke-linecap:round;stroke-linejoin:round;stroke-dasharray:none;stroke-opacity:1"
         id="path26"
         sodipodi:type="arc"
         sodipodi:cx="-746.46252"
         sodipodi:cy="-724.06134"
         sodipodi:rx="102.946"
         sodipodi:ry="102.946"
         sodipodi:start="0"
         sodipodi:end="1.5707963"
         sodipodi:arc-type="arc"
         d="m -643.51653,-724.06134 a 102.946,102.946 0 0 1 -102.94599,102.946"
         transform="scale(-1)"
         inkscape:label="tail1-legacy"
         sodipodi:open="true" /><path
         style="display:inline;fill:none;stroke:#2b3a55;stroke-width:8;stroke-linecap:butt;stroke-linejoin:round;stroke-dasharray:none;stroke-opacity:1"
         id="path3"
         sodipodi:type="arc"
         sodipodi:cx="-696.92236"
         sodipodi:cy="451.96478"
         sodipodi:rx="25"
         sodipodi:ry="25"
         sodipodi:start="4.4505896"
         sodipodi:end="6.0213859"
         sodipodi:arc-type="arc"
         d="m -703.39284,427.81664 a 25,25 0 0 1 30.61862,17.67767"
         sodipodi:open="true"
         transform="scale(-1,1)"
         inkscape:label="R eye" /><path
         style="display:inline;fill:none;stroke:#2b3a55;stroke-width:8;stroke-linecap:butt;stroke-linejoin:round;stroke-dasharray:none;stroke-opacity:1"
         id="path1"
         sodipodi:type="arc"
         sodipodi:cx="567.92334"
         sodipodi:cy="451.96478"
         sodipodi:rx="25"
         sodipodi:ry="25"
         sodipodi:start="4.4505896"
         sodipodi:end="6.0213859"
         sodipodi:arc-type="arc"
         d="m 561.45286,427.81664 a 25,25 0 0 1 30.61863,17.67767"
         sodipodi:open="true"
         inkscape:label="L eye" /><path
         d="m 610.08594,508.15039 a 250,250 0 0 1 22.33593,34.71094 250,250 0 0 1 22.3379,-34.71094 57,57 0 0 0 -22.33594,-4.55859 57,57 0 0 0 -22.33789,4.55859 z"
         style="opacity:1;fill:#2b3a55;fill-opacity:1;stroke-width:10;stroke-linecap:round;stroke-linejoin:round"
         id="path36"
         inkscape:label="nose" /><path
         d="m 761.14844,721.23828 78.7168,-12.36719 a 95,95 0 0 0 -78.7168,-79.04297 z"
         style="display:inline;opacity:1;mix-blend-mode:normal;fill:#e6edf3;fill-opacity:1;stroke-linejoin:round"
         id="path28"
         inkscape:label="tail3" /><path
         d="m 743.96289,628.63672 a 95,95 0 0 0 -92.92383,92.92383 h 92.92383 z"
         style="display:inline;opacity:1;fill:#fe721b;fill-opacity:1;stroke-linejoin:round"
         id="path9"
         inkscape:label="tail2" /><path
         style="display:inline;opacity:1;fill:#fe721b;fill-opacity:1;stroke:none;stroke-width:1.18142;stroke-linejoin:round;stroke-dasharray:none;stroke-opacity:1"
         id="path31"
         sodipodi:type="arc"
         sodipodi:cx="735.54669"
         sodipodi:cy="706.98328"
         sodipodi:rx="16.832365"
         sodipodi:ry="16.832365"
         sodipodi:start="5.2359878"
         sodipodi:end="1.0471976"
         sodipodi:arc-type="arc"
         d="m 743.96288,692.40602 a 16.832365,16.832365 0 0 1 8.41618,14.57726 16.832365,16.832365 0 0 1 -8.41619,14.57725"
         sodipodi:open="true" /><path
         style="display:inline;opacity:1;fill:#fe721b;fill-opacity:1;stroke:none;stroke-width:1.20542;stroke-linejoin:round;stroke-dasharray:none;stroke-opacity:1"
         id="path30"
         sodipodi:type="arc"
         sodipodi:cx="324.31824"
         sodipodi:cy="886.11041"
         sodipodi:rx="80"
         sodipodi:ry="80"
         sodipodi:start="0"
         sodipodi:end="0.88407691"
         sodipodi:open="true"
         sodipodi:arc-type="arc"
         d="m 404.31824,886.11041 a 80,80 0 0 1 -29.27971,61.86641"
         transform="rotate(-25.276258)" /><path
         d="m 641.01562,694.35742 a 109,109 0 0 1 75.74415,-75.74219 h -75.74415 z"
         style="display:inline;fill:#fe721b"
         id="path8"
         inkscape:label="tail1" /></g><text
       xml:space="preserve"
       style="font-style:normal;font-variant:normal;font-weight:600;font-stretch:normal;font-size:186.667px;line-height:1;font-family:Poppins;-inkscape-font-specification:'Poppins Semi-Bold';letter-spacing:2px;word-spacing:1px;writing-mode:lr-tb;direction:ltr;display:none;fill:#ffffff;stroke-width:15;stroke-linejoin:round"
       x="780.52722"
       y="671.08362"
       id="text3"
       inkscape:label="npyquick"><tspan
         sodipodi:role="line"
         id="tspan3"
         x="0"
         y="0"
         style="font-style:normal;font-variant:normal;font-weight:500;font-stretch:normal;font-size:186.667px;font-family:Poppins;-inkscape-font-specification:'Poppins Medium';letter-spacing:2px;fill:#000000"><tspan
           style="fill:#fe721b;fill-opacity:1"
           id="tspan4">npy</tspan><tspan
           style="fill:#1f2d44;fill-opacity:1"
           id="tspan5">quick</tspan></tspan></text><text
       xml:space="preserve"
       style="font-size:61.3333px;font-family:'DejaVu Sans';-inkscape-font-specification:'DejaVu Sans';text-align:center;writing-mode:lr-tb;direction:ltr;text-anchor:middle;white-space:pre;inline-size:924.904;display:none;fill:#b3b3b3;stroke:#ff0000;stroke-width:1.88976"
       x="1241.792"
       y="787.88922"
       id="text2"
       transform="translate(-11.133674,7.7811833)"
       inkscape:label="intro"><tspan
         x="1241.792"
         y="787.88922"
         id="tspan6"><tspan
           style="font-family:Monospace;-inkscape-font-specification:Monospace;fill:#a8a8a8;stroke:none"
           id="tspan1">Fast .npy/.npz previewer</tspan></tspan></text><g
       id="text34"
       style="font-weight:600;font-size:186.667px;line-height:1;font-family:Poppins;-inkscape-font-specification:'Poppins Semi-Bold';letter-spacing:2px;word-spacing:1px;display:none;fill:#ffffff;stroke-width:15;stroke-linejoin:round"
       inkscape:label="npyquick"
       aria-label="npyquick"><path
         style="font-weight:500;-inkscape-font-specification:'Poppins Medium';fill:#fe721b"
         d="m 846.42068,566.55009 q 12.13335,0 21.65337,5.04001 9.70668,5.04001 15.12003,14.93336 5.41334,9.89336 5.41334,23.89338 v 60.66678 h -21.09337 v -57.49344 q 0,-13.81336 -6.90668,-21.09337 -6.90668,-7.46668 -18.85337,-7.46668 -11.94669,0 -19.04003,7.46668 -6.90668,7.28001 -6.90668,21.09337 v 57.49344 H 794.52725 V 568.2301 h 21.28004 v 11.76002 q 5.22667,-6.34668 13.25335,-9.89335 8.21335,-3.54668 17.36004,-3.54668 z m 92.53317,16.80003 q 5.41334,-7.09334 14.74669,-11.94668 9.33335,-4.85335 21.09337,-4.85335 13.44003,0 24.45338,6.72002 11.20001,6.53334 17.54671,18.48003 6.3467,11.94669 6.3467,27.44005 0,15.49336 -6.3467,27.81338 -6.3467,12.13336 -17.54671,19.04004 -11.01335,6.72001 -24.45338,6.72001 -11.76002,0 -20.9067,-4.66667 -9.14669,-4.85335 -14.93336,-11.94669 v 63.84011 H 917.67381 V 568.2301 h 21.28004 z m 62.53345,35.84007 q 0,-10.64002 -4.48001,-18.29337 -4.29335,-7.84001 -11.57336,-11.76002 -7.09334,-4.10667 -15.30669,-4.10667 -8.02668,0 -15.3067,4.10667 -7.09334,4.10668 -11.57335,11.94669 -4.29334,7.84001 -4.29334,18.48003 0,10.64002 4.29334,18.6667 4.48001,7.84002 11.57335,11.94669 7.28002,4.10668 15.3067,4.10668 8.21335,0 15.30669,-4.10668 7.28001,-4.29334 11.57336,-12.32002 4.48001,-8.02668 4.48001,-18.6667 z m 56.32,-50.96009 28.9334,78.40014 30.0534,-78.40014 h 22.0267 l -63.0935,151.20027 h -22.0267 l 20.9067,-50.02675 -40.5067,-101.17352 z"
         id="path37" /><path
         style="font-weight:500;-inkscape-font-specification:'Poppins Medium';fill:#e6edf3;fill-opacity:1"
         d="m 1149.7806,619.19019 q 0,-15.49336 6.3467,-27.44005 6.5333,-11.94669 17.5467,-18.48003 11.2,-6.72002 24.8267,-6.72002 11.9467,0 21.0933,4.85335 9.3334,4.85334 14.3734,11.76002 V 568.2301 h 21.4667 v 151.76027 h -21.4667 v -63.84011 q -5.04,6.90668 -14.56,11.76002 -9.52,4.85334 -21.6534,4.85334 -13.2534,0 -24.2667,-6.72001 -10.8267,-6.90668 -17.36,-19.04004 -6.3467,-12.32002 -6.3467,-27.81338 z m 84.1868,0.37333 q 0,-10.64002 -4.48,-18.48003 -4.2933,-7.84001 -11.3867,-11.94669 -7.0933,-4.10667 -15.3067,-4.10667 -8.2133,0 -15.3067,4.10667 -7.0933,3.92001 -11.5733,11.76002 -4.2934,7.65335 -4.2934,18.29337 0,10.64002 4.2934,18.6667 4.48,8.02668 11.5733,12.32002 7.28,4.10668 15.3067,4.10668 8.2134,0 15.3067,-4.10668 7.0934,-4.10667 11.3867,-11.94669 4.48,-8.02668 4.48,-18.6667 z m 144.6135,-51.33342 v 102.85352 h -21.2801 v -12.13336 q -5.04,6.34668 -13.2533,10.08002 -8.0267,3.54667 -17.1734,3.54667 -12.1333,0 -21.84,-5.04 -9.52,-5.04001 -15.12,-14.93337 -5.4134,-9.89335 -5.4134,-23.89337 V 568.2301 h 21.0934 v 57.30677 q 0,13.81336 6.9067,21.28004 6.9066,7.28001 18.8533,7.28001 11.9467,0 18.8534,-7.28001 7.0933,-7.46668 7.0933,-21.28004 V 568.2301 Z m 40.8264,-13.62669 q -5.7867,0 -9.7067,-3.92001 -3.92,-3.92001 -3.92,-9.70669 0,-5.78667 3.92,-9.70668 3.92,-3.92001 9.7067,-3.92001 5.6,0 9.52,3.92001 3.92,3.92001 3.92,9.70668 0,5.78668 -3.92,9.70669 -3.92,3.92001 -9.52,3.92001 z m 10.4533,13.62669 v 102.85352 h -21.28 V 568.2301 Z m 22.9067,51.33342 q 0,-15.86669 6.3467,-27.81338 6.5334,-12.13336 17.92,-18.6667 11.3867,-6.53335 26.1334,-6.53335 18.6667,0 30.8001,8.96002 12.32,8.77335 16.6133,25.20005 h -22.96 q -2.8,-7.65335 -8.96,-11.94669 -6.16,-4.29334 -15.4934,-4.29334 -13.0667,0 -20.9067,9.33335 -7.6533,9.14668 -7.6533,25.76004 0,16.61337 7.6533,25.94672 7.84,9.33335 20.9067,9.33335 18.4801,0 24.4534,-16.24003 h 22.96 q -4.48,15.68003 -16.8,25.01338 -12.32,9.14668 -30.6134,9.14668 -14.7467,0 -26.1334,-6.53334 -11.3866,-6.72002 -17.92,-18.6667 -6.3467,-12.13336 -6.3467,-28.00006 z m 161.7867,0.18667 47.4134,51.33343 h -28.7467 l -38.08,-44.24008 v 44.24008 h -21.2801 V 532.95003 h 21.2801 v 80.26682 l 37.3334,-44.98675 h 29.4933 z"
         id="path38" /></g><path
       style="font-size:61.3333px;font-family:Monospace;-inkscape-font-specification:Monospace;text-align:center;text-anchor:middle;white-space:pre;inline-size:924.904;display:none;fill:#a8a8a8;stroke-width:1.88976"
       d="m 805.66071,743.177 h 26.3242 v 5.09115 h -20.24478 v 13.17707 h 18.35807 v 5.09115 h -18.35807 v 21.35285 h -6.07942 z m 50.97133,27.85155 h -1.82683 q -4.82161,0 -7.27734,1.70703 -2.42578,1.67709 -2.42578,5.03125 0,3.02474 1.82683,4.70182 1.82682,1.67708 5.06119,1.67708 4.55208,0 7.15755,-3.14453 2.60547,-3.17447 2.63541,-8.74478 v -1.22787 z m 10.6914,-2.27604 v 19.13671 h -5.54037 v -4.97135 q -1.76692,2.99479 -4.46223,4.43229 -2.66537,1.40755 -6.4987,1.40755 -5.12109,0 -8.17577,-2.875 -3.05469,-2.90494 -3.05469,-7.7565 0,-5.60026 3.74349,-8.50521 3.77343,-2.90494 11.05077,-2.90494 h 7.39713 v -0.86849 q -0.0299,-4.01302 -2.03645,-5.8099 -2.00651,-1.82682 -6.40885,-1.82682 -2.81511,0 -5.6901,0.80859 -2.875,0.8086 -5.60026,2.36589 v -5.51042 q 3.05468,-1.16796 5.83984,-1.73697 2.8151,-0.59896 5.45052,-0.59896 4.16275,0 7.09765,1.22786 2.96484,1.22787 4.79166,3.68359 1.13802,1.4974 1.61719,3.71354 0.47917,2.1862 0.47917,6.58854 z m 34.35024,-13.23697 v 5.39062 q -2.36589,-1.3776 -4.76172,-2.0664 -2.39583,-0.6888 -4.88151,-0.6888 -3.74348,0 -5.60025,1.22786 -1.82682,1.19792 -1.82682,3.68359 0,2.24609 1.3776,3.35417 1.3776,1.10807 6.85807,2.15624 l 2.21614,0.41928 q 4.10287,0.77864 6.19922,3.11458 2.1263,2.33593 2.1263,6.07942 0,4.97135 -3.53385,7.78646 -3.53386,2.78515 -9.82291,2.78515 -2.48568,0 -5.21094,-0.53906 -2.72526,-0.50912 -5.89974,-1.55729 v -5.6901 q 3.08464,1.58723 5.89974,2.39583 2.8151,0.77864 5.33073,0.77864 3.65364,0 5.66015,-1.46744 2.00651,-1.4974 2.00651,-4.16276 0,-3.83333 -7.33724,-5.30078 l -0.23958,-0.0599 -2.0664,-0.41927 q -4.76172,-0.92838 -6.94792,-3.11458 -2.18619,-2.21614 -2.18619,-6.01953 0,-4.82161 3.26432,-7.42708 3.26432,-2.63541 9.31379,-2.63541 2.69532,0 5.18099,0.50911 2.48568,0.47917 4.88151,1.46745 z m 26.17446,-10.6914 v 9.52343 h 12.51822 v 4.28255 h -12.51822 v 18.20833 q 0,3.71354 1.40755,5.18098 1.40755,1.46745 4.91146,1.46745 h 6.19921 v 4.40234 h -6.73827 q -6.19922,0 -8.74479,-2.48567 -2.54557,-2.48568 -2.54557,-8.5651 v -18.20833 h -8.95443 v -4.28255 h 8.95443 v -9.52343 z m 70.10805,33.93097 h 7.54691 v 9.13411 h -7.54691 z m 53.75651,-11.64973 v 20.78384 h -5.5404 v -20.78384 q 0,-4.52214 -1.5872,-6.64844 -1.5873,-2.1263 -4.9714,-2.1263 -3.8633,0 -5.9596,2.75521 -2.0664,2.72526 -2.0664,7.84635 v 18.95702 h -5.5104 v -33.54165 h 5.5104 v 5.03125 q 1.4674,-2.875 3.983,-4.34245 2.5157,-1.49739 5.9597,-1.49739 5.1211,0 7.6367,3.38411 2.5456,3.35417 2.5456,10.18229 z m 16.681,16.56119 v 16.98046 h -5.5404 v -46.29946 h 5.5404 v 4.28255 q 1.3776,-2.48567 3.6536,-3.77343 2.306,-1.31771 5.3008,-1.31771 6.0794,0 9.5234,4.70182 3.474,4.70182 3.474,13.02734 0,8.17577 -3.474,12.84765 -3.4739,4.64192 -9.5234,4.64192 -3.0547,0 -5.3607,-1.28776 -2.276,-1.31771 -3.5937,-3.80338 z m 16.1718,-12.51823 q 0,-6.40885 -2.0364,-9.67317 -2.0065,-3.26432 -5.9896,-3.26432 -4.013,0 -6.0794,3.29427 -2.0664,3.26432 -2.0664,9.64322 0,6.34896 2.0664,9.64323 2.0664,3.29427 6.0794,3.29427 3.9831,0 5.9896,-3.26432 2.0364,-3.26432 2.0364,-9.67318 z m 35.2187,5.95964 q -1.3776,3.5039 -3.5039,9.22395 -2.9648,7.90625 -3.983,9.64322 -1.3776,2.33594 -3.444,3.50391 -2.0664,1.16797 -4.8217,1.16797 h -4.4322 v -4.61198 h 3.2643 q 2.4258,0 3.8034,-1.40755 1.3776,-1.40755 3.5039,-7.27734 l -12.9675,-33.00259 h 5.8399 l 9.9427,26.23436 9.7929,-26.23436 h 5.8399 z m 37.8542,-33.93098 h 5.6901 l -23.5391,50.40232 h -5.72 z m 24.9466,35.57811 h 7.5469 v 9.13411 h -7.5469 z m 53.7565,-11.64973 v 20.78384 h -5.5404 v -20.78384 q 0,-4.52214 -1.5872,-6.64844 -1.5873,-2.1263 -4.9714,-2.1263 -3.8633,0 -5.9596,2.75521 -2.0664,2.72526 -2.0664,7.84635 v 18.95702 h -5.5104 v -33.54165 h 5.5104 v 5.03125 q 1.4674,-2.875 3.9831,-4.34245 2.5156,-1.49739 5.9596,-1.49739 5.1211,0 7.6367,3.38411 2.5456,3.35417 2.5456,10.18229 z m 16.6809,16.56119 v 16.98046 h -5.5403 v -46.29946 h 5.5403 v 4.28255 q 1.3776,-2.48567 3.6537,-3.77343 2.306,-1.31771 5.3008,-1.31771 6.0794,0 9.5234,4.70182 3.474,4.70182 3.474,13.02734 0,8.17577 -3.474,12.84765 -3.474,4.64192 -9.5234,4.64192 -3.0547,0 -5.3607,-1.28776 -2.2761,-1.31771 -3.5938,-3.80338 z m 16.1719,-12.51823 q 0,-6.40885 -2.0365,-9.67317 -2.0065,-3.26432 -5.9895,-3.26432 -4.013,0 -6.0795,3.29427 -2.0664,3.26432 -2.0664,9.64322 0,6.34896 2.0664,9.64323 2.0665,3.29427 6.0795,3.29427 3.983,0 5.9895,-3.26432 2.0365,-3.26432 2.0365,-9.67318 z m 16.3216,-16.86066 h 24.3477 v 5.03124 l -19.2565,24.07812 h 19.2565 v 4.49218 h -25.0664 v -5.09114 l 19.2565,-24.10806 h -18.5378 z m 78.2838,29.37889 v 16.98046 h -5.5403 v -46.29946 h 5.5403 v 4.28255 q 1.3776,-2.48567 3.6537,-3.77343 2.306,-1.31771 5.3007,-1.31771 6.0795,0 9.5235,4.70182 3.4739,4.70182 3.4739,13.02734 0,8.17577 -3.4739,12.84765 -3.474,4.64192 -9.5235,4.64192 -3.0546,0 -5.3606,-1.28776 -2.2761,-1.31771 -3.5938,-3.80338 z m 16.1719,-12.51823 q 0,-6.40885 -2.0365,-9.67317 -2.0065,-3.26432 -5.9895,-3.26432 -4.0131,0 -6.0795,3.29427 -2.0664,3.26432 -2.0664,9.64322 0,6.34896 2.0664,9.64323 2.0664,3.29427 6.0795,3.29427 3.983,0 5.9895,-3.26432 2.0365,-3.26432 2.0365,-9.67318 z m 44.1133,-9.8828 q -1.767,-1.37761 -3.5938,-2.00651 -1.8268,-0.62891 -4.013,-0.62891 -5.151,0 -7.8763,3.23438 -2.7253,3.23437 -2.7253,9.34374 v 16.68098 h -5.5403 v -33.54165 h 5.5403 v 6.55859 q 1.3776,-3.5638 4.2227,-5.45052 2.875,-1.91666 6.7982,-1.91666 2.0364,0 3.8034,0.50911 1.7669,0.50912 3.3841,1.58724 z m 35.638,8.47525 v 2.69531 h -23.8685 v 0.17969 q 0,5.48047 2.8451,8.47526 2.875,2.99479 8.0859,2.99479 2.6354,0 5.5104,-0.83854 2.875,-0.83854 6.1393,-2.54558 v 5.48047 q -3.1445,1.28776 -6.0794,1.91667 -2.9049,0.65885 -5.6302,0.65885 -7.8164,0 -12.2187,-4.67187 -4.4024,-4.70182 -4.4024,-12.9375 0,-8.02603 4.3125,-12.8177 4.3125,-4.79166 11.5,-4.79166 6.4089,0 10.0924,4.34244 3.7136,4.34245 3.7136,11.85937 z m -5.5104,-1.61718 q -0.1198,-4.85156 -2.306,-7.36719 -2.1563,-2.54557 -6.2292,-2.54557 -3.983,0 -6.5586,2.63542 -2.5755,2.63541 -3.0547,7.30728 z m 12.1288,-13.77604 h 5.7201 l 9.7331,28.15103 9.763,-28.15103 h 5.72 l -11.9192,33.54165 h -7.0977 z m 41.5977,0 h 14.1054 v 29.2591 h 10.931 v 4.28255 h -27.3723 v -4.28255 h 10.9309 v -24.97655 h -8.595 z m 8.595,-13.05728 h 5.5104 v 6.97786 h -5.5104 z m 53.9662,28.4505 v 2.69531 h -23.8685 v 0.17969 q 0,5.48047 2.845,8.47526 2.875,2.99479 8.086,2.99479 2.6354,0 5.5104,-0.83854 2.875,-0.83854 6.1393,-2.54558 v 5.48047 q -3.1445,1.28776 -6.0794,1.91667 -2.905,0.65885 -5.6302,0.65885 -7.8164,0 -12.2188,-4.67187 -4.4023,-4.70182 -4.4023,-12.9375 0,-8.02603 4.3125,-12.8177 4.3125,-4.79166 11.5,-4.79166 6.4088,0 10.0924,4.34244 3.7136,4.34245 3.7136,11.85937 z m -5.5104,-1.61718 q -0.1198,-4.85156 -2.306,-7.36719 -2.1563,-2.54557 -6.2292,-2.54557 -3.9831,0 -6.5586,2.63542 -2.5755,2.63541 -3.0547,7.30728 z m 9.134,-13.77604 h 5.4505 l 5.8399,27.10285 4.7916,-17.30988 h 4.7019 l 4.8515,17.30988 5.8399,-27.10285 h 5.4505 l -7.8464,33.54165 h -5.2708 l -5.3607,-18.38801 -5.3307,18.38801 h -5.2708 z m 70.2279,15.39322 v 2.69531 h -23.8685 v 0.17969 q 0,5.48047 2.845,8.47526 2.875,2.99479 8.086,2.99479 2.6354,0 5.5104,-0.83854 2.875,-0.83854 6.1393,-2.54558 v 5.48047 q -3.1445,1.28776 -6.0794,1.91667 -2.905,0.65885 -5.6302,0.65885 -7.8164,0 -12.2188,-4.67187 -4.4023,-4.70182 -4.4023,-12.9375 0,-8.02603 4.3125,-12.8177 4.3125,-4.79166 11.5,-4.79166 6.4088,0 10.0924,4.34244 3.7136,4.34245 3.7136,11.85937 z m -5.5104,-1.61718 q -0.1198,-4.85156 -2.306,-7.36719 -2.1563,-2.54557 -6.2292,-2.54557 -3.9831,0 -6.5586,2.63542 -2.5755,2.63541 -3.0547,7.30728 z m 43.7239,-6.85807 q -1.7669,-1.37761 -3.5937,-2.00651 -1.8269,-0.62891 -4.0131,-0.62891 -5.151,0 -7.8763,3.23438 -2.7252,3.23437 -2.7252,9.34374 v 16.68098 h -5.5404 v -33.54165 h 5.5404 v 6.55859 q 1.3776,-3.5638 4.2226,-5.45052 2.875,-1.91666 6.7982,-1.91666 2.0365,0 3.8034,0.50911 1.7669,0.50912 3.3841,1.58724 z"
       id="text36"
       inkscape:label="intro"
       transform="translate(-11.133674,7.7811833)"
       aria-label="Fast .npy/.npz previewer" /></g></svg>
